<svg width="1053" height="241" viewBox="0 0 1053 241" fill="none" xmlns="http://www.w3.org/2000/svg">
<path d="M0.928724 236L-0.0384221 235.746L-0.368103 237H0.928724V236ZM61.5335 5.43851V4.43851H60.7623L60.5663 5.18429L61.5335 5.43851ZM137.289 5.43851L138.257 5.18429L138.06 4.43851H137.289V5.43851ZM197.894 236V237H199.191L198.861 235.746L197.894 236ZM153.099 236L152.128 236.24L152.316 237H153.099V236ZM140.583 185.276L141.554 185.037L141.366 184.276H140.583V185.276ZM58.2397 185.276V184.276H57.4565L57.2688 185.037L58.2397 185.276ZM45.7235 236V237H46.5068L46.6944 236.24L45.7235 236ZM68.4503 145.093L67.48 144.851L67.1704 146.093H68.4503V145.093ZM130.373 145.093V146.093H131.652L131.343 144.851L130.373 145.093ZM102.376 32.7765L103.346 32.5346L103.157 31.7765H102.376V32.7765ZM96.4471 32.7765V31.7765H95.6657L95.4767 32.5346L96.4471 32.7765ZM1.89587 236.254L62.5006 5.69273L60.5663 5.18429L-0.0384221 235.746L1.89587 236.254ZM61.5335 6.43851H137.289V4.43851H61.5335V6.43851ZM136.322 5.69273L196.927 236.254L198.861 235.746L138.257 5.18429L136.322 5.69273ZM197.894 235H153.099V237H197.894V235ZM154.07 235.76L141.554 185.037L139.612 185.516L152.128 236.24L154.07 235.76ZM140.583 184.276H58.2397V186.276H140.583V184.276ZM57.2688 185.037L44.7526 235.76L46.6944 236.24L59.2106 185.516L57.2688 185.037ZM45.7235 235H0.928724V237H45.7235V235ZM68.4503 146.093H130.373V144.093H68.4503V146.093ZM131.343 144.851L103.346 32.5346L101.405 33.0184L129.402 145.335L131.343 144.851ZM102.376 31.7765H96.4471V33.7765H102.376V31.7765ZM95.4767 32.5346L67.48 144.851L69.4206 145.335L97.4174 33.0184L95.4767 32.5346ZM218.905 236H217.905V237H218.905V236ZM218.905 197.793V196.793H217.905V197.793H218.905ZM249.207 197.793V198.793H250.207V197.793H249.207ZM249.207 43.6458H250.207V42.6458H249.207V43.6458ZM218.905 43.6458H217.905V44.6458H218.905V43.6458ZM218.905 5.43851V4.43851H217.905V5.43851H218.905ZM374.039 12.6847L373.616 13.5904L373.627 13.5958L373.639 13.6009L374.039 12.6847ZM398.413 32.7765L397.575 33.3215L397.583 33.3337L397.591 33.3457L398.413 32.7765ZM401.377 93.0519L402.235 93.5664L402.239 93.5602L402.242 93.554L401.377 93.0519ZM387.214 108.532L387.769 109.365L387.777 109.359L387.214 108.532ZM372.063 116.108L371.76 115.155L371.063 115.377V116.108H372.063ZM372.063 122.037H371.063V122.801L371.8 123.002L372.063 122.037ZM387.873 129.612L387.326 130.449L387.337 130.457L387.349 130.464L387.873 129.612ZM402.366 145.093L401.501 145.595L401.507 145.605L401.513 145.615L402.366 145.093ZM399.731 208.003L400.566 208.553L400.572 208.544L399.731 208.003ZM375.028 228.754L374.611 227.845L374.604 227.848L375.028 228.754ZM292.684 196.475H291.684V197.475H292.684V196.475ZM356.253 189.558L355.639 188.769L355.632 188.775L355.625 188.78L356.253 189.558ZM356.583 146.74L357.211 145.962L357.211 145.962L356.583 146.74ZM292.684 139.823V138.823H291.684V139.823H292.684ZM292.684 100.298H291.684V101.298H292.684V100.298ZM354.936 93.3813L354.322 92.5919L354.315 92.5975L354.307 92.6033L354.936 93.3813ZM355.265 51.8802L354.637 52.6581L354.646 52.6656L354.655 52.6728L355.265 51.8802ZM292.684 44.9633V43.9633H291.684V44.9633H292.684ZM219.905 236V197.793H217.905V236H219.905ZM218.905 198.793H249.207V196.793H218.905V198.793ZM250.207 197.793V43.6458H248.207V197.793H250.207ZM249.207 42.6458H218.905V44.6458H249.207V42.6458ZM219.905 43.6458V5.43851H217.905V43.6458H219.905ZM218.905 6.43851H337.479V4.43851H218.905V6.43851ZM337.479 6.43851C351.419 6.43851 363.455 8.83447 373.616 13.5904L374.463 11.779C363.983 6.87336 351.645 4.43851 337.479 4.43851V6.43851ZM373.639 13.6009C384.018 18.1418 391.982 24.718 397.575 33.3215L399.252 32.2315C393.426 23.2684 385.141 16.4501 374.44 11.7686L373.639 13.6009ZM397.591 33.3457C403.386 41.7167 406.306 51.8306 406.306 63.7376H408.306C408.306 51.4906 405.297 40.9638 399.235 32.2073L397.591 33.3457ZM406.306 63.7376V67.0314H408.306V63.7376H406.306ZM406.306 67.0314C406.306 77.4527 404.352 85.9384 400.513 92.5497L402.242 93.554C406.308 86.5512 408.306 77.6899 408.306 67.0314H406.306ZM400.52 92.5374C396.63 99.02 392.004 104.066 386.652 107.706L387.777 109.359C393.404 105.533 398.22 100.259 402.235 93.5664L400.52 92.5374ZM386.66 107.7C381.449 111.174 376.483 113.652 371.76 115.155L372.366 117.061C377.305 115.49 382.44 112.917 387.769 109.364L386.66 107.7ZM371.063 116.108V122.037H373.063V116.108H371.063ZM371.8 123.002C376.501 124.284 381.675 126.754 387.326 130.449L388.42 128.775C382.653 125.005 377.287 122.425 372.326 121.072L371.8 123.002ZM387.349 130.464C392.895 133.877 397.617 138.906 401.501 145.595L403.23 144.591C399.209 137.666 394.27 132.375 388.397 128.761L387.349 130.464ZM401.513 145.615C405.559 152.217 407.624 160.911 407.624 171.772H409.624C409.624 160.675 407.516 151.583 403.218 144.57L401.513 145.615ZM407.624 171.772V175.066H409.624V171.772H407.624ZM407.624 175.066C407.624 187.642 404.699 198.426 398.889 207.462L400.572 208.544C406.62 199.136 409.624 187.962 409.624 175.066H407.624ZM398.895 207.453C393.078 216.288 384.994 223.086 374.611 227.845L375.444 229.663C386.141 224.76 394.526 217.725 400.566 208.553L398.895 207.453ZM374.604 227.848C364.441 232.605 352.514 235 338.796 235V237C352.746 237 364.973 234.564 375.452 229.659L374.604 227.848ZM338.796 235H218.905V237H338.796V235ZM292.684 197.475H333.527V195.475H292.684V197.475ZM333.527 197.475C343.131 197.475 350.949 195.128 356.882 190.336L355.625 188.78C350.139 193.211 342.806 195.475 333.527 195.475V197.475ZM356.867 190.348C363.076 185.519 366.146 178.619 366.146 169.796H364.146C364.146 178.1 361.288 184.375 355.639 188.769L356.867 190.348ZM366.146 169.796V166.502H364.146V169.796H366.146ZM366.146 166.502C366.146 157.693 363.196 150.796 357.211 145.962L355.954 147.518C361.388 151.906 364.146 158.184 364.146 166.502H366.146ZM357.211 145.962C351.275 141.167 343.344 138.823 333.527 138.823V140.823C343.032 140.823 350.473 143.09 355.954 147.518L357.211 145.962ZM333.527 138.823H292.684V140.823H333.527V138.823ZM291.684 139.823V196.475H293.684V139.823H291.684ZM292.684 101.298H332.868V99.2981H292.684V101.298ZM332.868 101.298C342.046 101.298 349.64 98.9444 355.564 94.1592L354.307 92.6033C348.814 97.0405 341.695 99.2981 332.868 99.2981V101.298ZM355.55 94.1706C361.744 89.3528 364.829 82.6817 364.829 74.2776H362.829C362.829 82.1226 359.985 88.1873 354.322 92.5919L355.55 94.1706ZM364.829 74.2776V70.9838H362.829V74.2776H364.829ZM364.829 70.9838C364.829 62.3849 361.871 55.7 355.875 51.0876L354.655 52.6728C360.078 56.8436 362.829 62.8945 362.829 70.9838H364.829ZM355.894 51.1022C349.965 46.3137 342.259 43.9633 332.868 43.9633V45.9633C341.922 45.9633 349.147 48.2242 354.637 52.6581L355.894 51.1022ZM332.868 43.9633H292.684V45.9633H332.868V43.9633ZM291.684 44.9633V100.298H293.684V44.9633H291.684ZM464.638 216.896L463.954 217.626L463.96 217.631L464.638 216.896ZM464.638 24.8716L465.316 25.6064L465.321 25.6017L464.638 24.8716ZM602.975 24.8716L602.291 25.6017L602.296 25.6064L602.975 24.8716ZM602.975 216.896L603.653 217.631L603.658 217.626L602.975 216.896ZM571.684 187.582L570.96 186.892L570.96 186.892L571.684 187.582ZM571.684 53.8564L570.96 54.5465L570.96 54.5465L571.684 53.8564ZM495.928 53.8564L495.213 53.1576L495.205 53.1663L495.928 53.8564ZM495.928 187.582L495.204 188.272L495.213 188.281L495.928 187.582ZM533.806 239.611C505.009 239.611 482.217 231.762 465.316 216.162L463.96 217.631C481.314 233.651 504.634 241.611 533.806 241.611V239.611ZM465.321 216.166C448.446 200.373 439.947 177.831 439.947 148.387H437.947C437.947 178.229 446.575 201.361 463.954 217.626L465.321 216.166ZM439.947 148.387V93.0519H437.947V148.387H439.947ZM439.947 93.0519C439.947 63.6067 448.446 41.1784 465.316 25.6064L463.96 24.1367C446.574 40.1845 437.947 63.2099 437.947 93.0519H439.947ZM465.321 25.6017C482.222 9.78415 505.012 1.82728 533.806 1.82728V-0.172719C504.63 -0.172719 481.308 7.89993 463.954 24.1414L465.321 25.6017ZM533.806 1.82728C562.6 1.82728 585.39 9.78415 602.291 25.6017L603.658 24.1414C586.304 7.89993 562.982 -0.172719 533.806 -0.172719V1.82728ZM602.296 25.6064C619.166 41.1784 627.666 63.6067 627.666 93.0519H629.666C629.666 63.2099 621.038 40.1845 603.653 24.1367L602.296 25.6064ZM627.666 93.0519V148.387H629.666V93.0519H627.666ZM627.666 148.387C627.666 177.831 619.166 200.373 602.291 216.166L603.658 217.626C621.038 201.361 629.666 178.229 629.666 148.387H627.666ZM602.296 216.162C585.396 231.762 562.604 239.611 533.806 239.611V241.611C562.978 241.611 586.299 233.651 603.653 217.631L602.296 216.162ZM533.806 202.745C550.257 202.745 563.172 197.959 572.408 188.272L570.96 186.892C562.191 196.09 549.853 200.745 533.806 200.745V202.745ZM572.408 188.272C581.624 178.606 586.188 165.713 586.188 149.704H584.188C584.188 165.315 579.75 177.674 570.96 186.892L572.408 188.272ZM586.188 149.704V91.7344H584.188V149.704H586.188ZM586.188 91.7344C586.188 75.7251 581.624 62.8323 572.408 53.1663L570.96 54.5465C579.75 63.7646 584.188 76.1238 584.188 91.7344H586.188ZM572.408 53.1663C563.172 43.48 550.257 38.6934 533.806 38.6934V40.6934C549.853 40.6934 562.191 45.3488 570.96 54.5465L572.408 53.1663ZM533.806 38.6934C517.569 38.6934 504.663 43.4829 495.213 53.1577L496.644 54.5552C505.639 45.3459 517.984 40.6934 533.806 40.6934V38.6934ZM495.205 53.1663C485.988 62.8323 481.424 75.7251 481.424 91.7344H483.424C483.424 76.1238 487.863 63.7646 496.652 54.5465L495.205 53.1663ZM481.424 91.7344V149.704H483.424V91.7344H481.424ZM481.424 149.704C481.424 165.713 485.988 178.606 495.205 188.272L496.652 186.892C487.863 177.674 483.424 165.315 483.424 149.704H481.424ZM495.213 188.281C504.663 197.956 517.569 202.745 533.806 202.745V200.745C517.984 200.745 505.639 196.093 496.644 186.883L495.213 188.281ZM706.985 230.401L706.52 231.286L706.529 231.291L706.537 231.295L706.985 230.401ZM676.023 200.757L675.144 201.234L675.149 201.243L675.154 201.252L676.023 200.757ZM665.484 5.43851V4.43851H664.484V5.43851H665.484ZM708.961 5.43851H709.961V4.43851H708.961V5.43851ZM720.818 189.558L720.101 190.256L720.111 190.265L720.818 189.558ZM790.316 189.558L789.609 188.851L789.599 188.861L790.316 189.558ZM802.503 5.43851V4.43851H801.503V5.43851H802.503ZM845.98 5.43851H846.98V4.43851H845.98V5.43851ZM835.111 200.757L834.238 200.269L834.235 200.274L835.111 200.757ZM804.15 230.401L804.603 231.292L804.608 231.289L804.15 230.401ZM755.732 239.611C736.966 239.611 720.878 236.229 707.432 229.506L706.537 231.295C720.32 238.186 736.729 241.611 755.732 241.611V239.611ZM707.449 229.515C694.218 222.574 684.041 212.826 676.893 200.263L675.154 201.252C682.498 214.159 692.962 224.174 706.52 231.286L707.449 229.515ZM676.903 200.28C669.969 187.497 666.484 172.406 666.484 154.974H664.484C664.484 172.675 668.025 188.106 675.144 201.234L676.903 200.28ZM666.484 154.974V5.43851H664.484V154.974H666.484ZM665.484 6.43851H708.961V4.43851H665.484V6.43851ZM707.961 5.43851V156.292H709.961V5.43851H707.961ZM707.961 156.292C707.961 170.539 711.974 181.902 720.102 190.256L721.535 188.861C713.853 180.966 709.961 170.15 709.961 156.292H707.961ZM720.111 190.265C728.477 198.632 740.403 202.745 755.732 202.745V200.745C740.758 200.745 729.408 196.734 721.525 188.851L720.111 190.265ZM755.732 202.745C771.059 202.745 782.883 198.632 791.033 190.256L789.599 188.861C781.94 196.734 770.707 200.745 755.732 200.745V202.745ZM791.023 190.265C799.376 181.913 803.503 170.547 803.503 156.292H801.503C801.503 170.143 797.506 180.954 789.609 188.851L791.023 190.265ZM803.503 156.292V5.43851H801.503V156.292H803.503ZM802.503 6.43851H845.98V4.43851H802.503V6.43851ZM844.98 5.43851V154.974H846.98V5.43851H844.98ZM844.98 154.974C844.98 172.401 841.387 187.488 834.238 200.269L835.984 201.245C843.327 188.115 846.98 172.68 846.98 154.974H844.98ZM834.235 200.274C827.31 212.827 817.139 222.571 803.691 229.512L804.608 231.289C818.389 224.177 828.859 214.159 835.986 201.24L834.235 200.274ZM803.697 229.509C790.474 236.229 774.498 239.611 755.732 239.611V241.611C774.734 241.611 791.037 238.186 804.603 231.292L803.697 229.509ZM941.457 236H940.457V237H941.457V236ZM941.457 44.9633H942.457V43.9633H941.457V44.9633ZM874.265 44.9633H873.265V45.9633H874.265V44.9633ZM874.265 5.43851V4.43851H873.265V5.43851H874.265ZM1052.13 5.43851H1053.13V4.43851H1052.13V5.43851ZM1052.13 44.9633V45.9633H1053.13V44.9633H1052.13ZM984.935 44.9633V43.9633H983.935V44.9633H984.935ZM984.935 236V237H985.935V236H984.935ZM942.457 236V44.9633H940.457V236H942.457ZM941.457 43.9633H874.265V45.9633H941.457V43.9633ZM875.265 44.9633V5.43851H873.265V44.9633H875.265ZM874.265 6.43851H1052.13V4.43851H874.265V6.43851ZM1051.13 5.43851V44.9633H1053.13V5.43851H1051.13ZM1052.13 43.9633H984.935V45.9633H1052.13V43.9633ZM983.935 44.9633V236H985.935V44.9633H983.935ZM984.935 235H941.457V237H984.935V235Z" fill="#363636"/>
</svg>
