<svg width="88" height="88" viewBox="0 0 88 88" fill="none" xmlns="http://www.w3.org/2000/svg">
<circle cx="44" cy="44" r="42" stroke="#00FFA3" stroke-width="4"/>
<path d="M29.6193 26.7909C28.8382 26.0099 27.5719 26.0099 26.7909 26.7909C26.0098 27.572 26.0098 28.8383 26.7909 29.6194L29.6193 26.7909ZM59.7948 61.7949C60.8994 61.7949 61.7948 60.8995 61.7948 59.7949V41.7949C61.7948 40.6903 60.8994 39.7949 59.7948 39.7949C58.6903 39.7949 57.7948 40.6903 57.7948 41.7949V57.7949H41.7948C40.6903 57.7949 39.7948 58.6903 39.7948 59.7949C39.7948 60.8995 40.6903 61.7949 41.7948 61.7949H59.7948ZM26.7909 29.6194L58.3806 61.2091L61.209 58.3807L29.6193 26.7909L26.7909 29.6194Z" fill="#00FFA3"/>
</svg>
