<svg width="1080" height="241" viewBox="0 0 1080 241" fill="none" xmlns="http://www.w3.org/2000/svg">
<path d="M0.738653 236H-0.261347V237H0.738653V236ZM0.738653 5.43851V4.43851H-0.261347V5.43851H0.738653ZM44.216 5.43851H45.216V4.43851H44.216V5.43851ZM44.216 100.627H43.216V101.627H44.216V100.627ZM129.853 100.627V101.627H130.853V100.627H129.853ZM129.853 5.43851V4.43851H128.853V5.43851H129.853ZM173.33 5.43851H174.33V4.43851H173.33V5.43851ZM173.33 236V237H174.33V236H173.33ZM129.853 236H128.853V237H129.853V236ZM129.853 140.152H130.853V139.152H129.853V140.152ZM44.216 140.152V139.152H43.216V140.152H44.216ZM44.216 236V237H45.216V236H44.216ZM1.73865 236V5.43851H-0.261347V236H1.73865ZM0.738653 6.43851H44.216V4.43851H0.738653V6.43851ZM43.216 5.43851V100.627H45.216V5.43851H43.216ZM44.216 101.627H129.853V99.6275H44.216V101.627ZM130.853 100.627V5.43851H128.853V100.627H130.853ZM129.853 6.43851H173.33V4.43851H129.853V6.43851ZM172.33 5.43851V236H174.33V5.43851H172.33ZM173.33 235H129.853V237H173.33V235ZM130.853 236V140.152H128.853V236H130.853ZM129.853 139.152H44.216V141.152H129.853V139.152ZM43.216 140.152V236H45.216V140.152H43.216ZM44.216 235H0.738653V237H44.216V235ZM237.311 216.896L236.628 217.626L236.633 217.631L237.311 216.896ZM237.311 24.8716L237.99 25.6064L237.995 25.6017L237.311 24.8716ZM375.648 24.8716L374.965 25.6017L374.97 25.6064L375.648 24.8716ZM375.648 216.896L376.326 217.631L376.331 217.626L375.648 216.896ZM344.358 187.582L343.634 186.892L344.358 187.582ZM344.358 53.8564L343.634 54.5465L344.358 53.8564ZM268.602 53.8564L267.886 53.1576L267.878 53.1664L268.602 53.8564ZM268.602 187.582L267.878 188.272L267.886 188.281L268.602 187.582ZM306.48 239.611C277.682 239.611 254.89 231.762 237.989 216.162L236.633 217.631C253.987 233.651 277.307 241.611 306.48 241.611V239.611ZM237.995 216.166C221.12 200.373 212.62 177.831 212.62 148.387H210.62C210.62 178.229 219.248 201.361 236.628 217.626L237.995 216.166ZM212.62 148.387V93.0519H210.62V148.387H212.62ZM212.62 93.0519C212.62 63.6067 221.12 41.1784 237.989 25.6064L236.633 24.1367C219.248 40.1845 210.62 63.2099 210.62 93.0519H212.62ZM237.995 25.6017C254.895 9.78415 277.686 1.82728 306.48 1.82728V-0.172722C277.304 -0.172722 253.982 7.89993 236.628 24.1414L237.995 25.6017ZM306.48 1.82728C335.273 1.82728 358.064 9.78415 374.965 25.6017L376.331 24.1414C358.977 7.89993 335.656 -0.172722 306.48 -0.172722V1.82728ZM374.97 25.6064C391.84 41.1784 400.339 63.6067 400.339 93.0519H402.339C402.339 63.2099 393.711 40.1845 376.326 24.1367L374.97 25.6064ZM400.339 93.0519V148.387H402.339V93.0519H400.339ZM400.339 148.387C400.339 177.831 391.84 200.373 374.965 216.166L376.331 217.626C393.711 201.361 402.339 178.229 402.339 148.387H400.339ZM374.97 216.162C358.069 231.762 335.277 239.611 306.48 239.611V241.611C335.652 241.611 358.972 233.651 376.326 217.631L374.97 216.162ZM306.48 202.745C322.931 202.745 335.845 197.959 345.081 188.272L343.634 186.892C334.864 196.09 322.527 200.745 306.48 200.745V202.745ZM345.081 188.272C354.298 178.606 358.862 165.713 358.862 149.704H356.862C356.862 165.315 352.423 177.674 343.634 186.892L345.081 188.272ZM358.862 149.704V91.7344H356.862V149.704H358.862ZM358.862 91.7344C358.862 75.7251 354.298 62.8323 345.081 53.1664L343.634 54.5465C352.423 63.7646 356.862 76.1238 356.862 91.7344H358.862ZM345.081 53.1664C335.845 43.48 322.931 38.6934 306.48 38.6934V40.6934C322.527 40.6934 334.864 45.3488 343.634 54.5465L345.081 53.1664ZM306.48 38.6934C290.243 38.6934 277.336 43.4829 267.886 53.1577L269.317 54.5552C278.312 45.3459 290.658 40.6934 306.48 40.6934V38.6934ZM267.878 53.1664C258.662 62.8323 254.097 75.7251 254.097 91.7344H256.097C256.097 76.1238 260.536 63.7646 269.325 54.5465L267.878 53.1664ZM254.097 91.7344V149.704H256.097V91.7344H254.097ZM254.097 149.704C254.097 165.713 258.662 178.606 267.878 188.272L269.325 186.892C260.536 177.674 256.097 165.315 256.097 149.704H254.097ZM267.886 188.281C277.336 197.956 290.243 202.745 306.48 202.745V200.745C290.658 200.745 278.312 196.093 269.317 186.883L267.886 188.281ZM439.474 236H438.474V237H439.474V236ZM439.474 5.43851V4.43851H438.474V5.43851H439.474ZM520.171 5.43851L521.152 5.24394L520.992 4.43851H520.171V5.43851ZM560.025 206.356L559.044 206.551L559.204 207.356H560.025V206.356ZM565.954 206.356V207.356H566.775L566.935 206.551L565.954 206.356ZM605.808 5.43851V4.43851H604.987L604.827 5.24394L605.808 5.43851ZM686.505 5.43851H687.505V4.43851H686.505V5.43851ZM686.505 236V237H687.505V236H686.505ZM644.345 236H643.345V237H644.345V236ZM644.345 37.3877H645.345V36.3877H644.345V37.3877ZM638.416 37.3877V36.3877H637.596L637.435 37.1926L638.416 37.3877ZM598.891 236V237H599.712L599.872 236.195L598.891 236ZM527.088 236L526.107 236.195L526.267 237H527.088V236ZM487.563 37.3877L488.544 37.1926L488.384 36.3877H487.563V37.3877ZM481.634 37.3877V36.3877H480.634V37.3877H481.634ZM481.634 236V237H482.634V236H481.634ZM440.474 236V5.43851H438.474V236H440.474ZM439.474 6.43851H520.171V4.43851H439.474V6.43851ZM519.19 5.63308L559.044 206.551L561.006 206.162L521.152 5.24394L519.19 5.63308ZM560.025 207.356H565.954V205.356H560.025V207.356ZM566.935 206.551L606.789 5.63308L604.827 5.24394L564.973 206.162L566.935 206.551ZM605.808 6.43851H686.505V4.43851H605.808V6.43851ZM685.505 5.43851V236H687.505V5.43851H685.505ZM686.505 235H644.345V237H686.505V235ZM645.345 236V37.3877H643.345V236H645.345ZM644.345 36.3877H638.416V38.3877H644.345V36.3877ZM637.435 37.1926L597.911 235.805L599.872 236.195L639.397 37.5829L637.435 37.1926ZM598.891 235H527.088V237H598.891V235ZM528.069 235.805L488.544 37.1926L486.582 37.5829L526.107 236.195L528.069 235.805ZM487.563 36.3877H481.634V38.3877H487.563V36.3877ZM480.634 37.3877V236H482.634V37.3877H480.634ZM481.634 235H439.474V237H481.634V235ZM729.928 236H728.928V237H729.928V236ZM729.928 5.43851V4.43851H728.928V5.43851H729.928ZM878.146 5.43851H879.146V4.43851H878.146V5.43851ZM878.146 44.9633V45.9633H879.146V44.9633H878.146ZM773.405 44.9633V43.9633H772.405V44.9633H773.405ZM773.405 99.9687H772.405V100.969H773.405V99.9687ZM868.924 99.9687H869.924V98.9687H868.924V99.9687ZM868.924 139.494V140.494H869.924V139.494H868.924ZM773.405 139.494V138.494H772.405V139.494H773.405ZM773.405 196.475H772.405V197.475H773.405V196.475ZM880.122 196.475H881.122V195.475H880.122V196.475ZM880.122 236V237H881.122V236H880.122ZM730.928 236V5.43851H728.928V236H730.928ZM729.928 6.43851H878.146V4.43851H729.928V6.43851ZM877.146 5.43851V44.9633H879.146V5.43851H877.146ZM878.146 43.9633H773.405V45.9633H878.146V43.9633ZM772.405 44.9633V99.9687H774.405V44.9633H772.405ZM773.405 100.969H868.924V98.9687H773.405V100.969ZM867.924 99.9687V139.494H869.924V99.9687H867.924ZM868.924 138.494H773.405V140.494H868.924V138.494ZM772.405 139.494V196.475H774.405V139.494H772.405ZM773.405 197.475H880.122V195.475H773.405V197.475ZM879.122 196.475V236H881.122V196.475H879.122ZM880.122 235H729.928V237H880.122V235ZM945.243 231.059L944.819 231.965L945.243 231.059ZM913.294 203.721L914.133 203.177L913.294 203.721ZM901.766 151.68V150.68H900.766V151.68H901.766ZM944.584 151.68H945.584V150.68H944.584V151.68ZM957.43 192.193L956.796 192.966L956.802 192.971L956.808 192.976L957.43 192.193ZM1025.61 193.511L1024.99 192.728L1024.98 192.732L1024.98 192.737L1025.61 193.511ZM1031.21 155.303L1030.46 155.968L1030.47 155.979L1030.48 155.99L1031.21 155.303ZM1015.4 145.752L1015.04 146.684L1015.06 146.691L1015.07 146.697L1015.4 145.752ZM990.367 138.505L990.584 137.529L990.58 137.528L990.367 138.505ZM982.792 136.859L982.575 137.835L982.579 137.836L982.792 136.859ZM941.949 123.684L941.509 124.582L941.52 124.587L941.53 124.592L941.949 123.684ZM915.929 102.274L915.1 102.834L915.105 102.841L915.11 102.848L915.929 102.274ZM916.917 32.1178L916.088 31.5589L916.085 31.5631L916.917 32.1178ZM945.243 9.06163L945.643 9.9782L945.651 9.97477L945.243 9.06163ZM1032.2 9.391L1031.79 10.3035L1031.8 10.3077L1031.81 10.3118L1032.2 9.391ZM1062.5 34.4234L1061.66 34.9666L1061.67 34.9762L1061.67 34.9857L1062.5 34.4234ZM1073.7 85.8057V86.8057H1074.7V85.8057H1073.7ZM1030.88 85.8057H1029.88V86.8057H1030.88V85.8057ZM1025.61 54.8446L1024.75 55.3591L1024.76 55.3795L1024.78 55.3992L1025.61 54.8446ZM1011.12 42.9871L1010.74 43.9111L1010.75 43.9168L1010.76 43.9221L1011.12 42.9871ZM959.077 46.6102L959.695 47.3965L959.698 47.3937L959.077 46.6102ZM954.136 81.1944L953.325 81.7799L953.336 81.7943L953.347 81.8084L954.136 81.1944ZM967.64 91.0756L968.047 90.1618L967.64 91.0756ZM990.367 97.9925L990.58 97.0153L990.577 97.0147L990.367 97.9925ZM997.943 99.6393L997.73 100.617L997.734 100.617L997.943 99.6393ZM1040.76 113.144L1040.35 114.054L1040.35 114.057L1040.76 113.144ZM1069.42 134.882L1070.21 134.279V134.279L1069.42 134.882ZM1068.76 206.686L1067.93 206.127L1067.93 206.131L1068.76 206.686ZM1038.46 231.718L1038.87 232.627L1038.88 232.624L1038.46 231.718ZM992.343 239.611C974.677 239.611 959.126 236.449 945.667 230.154L944.819 231.965C958.588 238.405 974.437 241.611 992.343 241.611V239.611ZM945.667 230.154C932.211 223.86 921.71 214.868 914.133 203.177L912.455 204.265C920.248 216.29 931.047 225.523 944.819 231.965L945.667 230.154ZM914.133 203.177C906.57 191.509 902.766 177.434 902.766 160.903H900.766C900.766 177.749 904.646 192.218 912.455 204.265L914.133 203.177ZM902.766 160.903V151.68H900.766V160.903H902.766ZM901.766 152.68H944.584V150.68H901.766V152.68ZM943.584 151.68V160.903H945.584V151.68H943.584ZM943.584 160.903C943.584 174.955 947.944 185.704 956.796 192.966L958.064 191.42C949.788 184.63 945.584 174.518 945.584 160.903H943.584ZM956.808 192.976C965.601 199.966 977.483 203.404 992.343 203.404V201.404C977.78 201.404 966.386 198.035 958.052 191.41L956.808 192.976ZM992.343 203.404C1007.38 203.404 1018.74 200.424 1026.24 194.285L1024.98 192.737C1017.99 198.455 1007.17 201.404 992.343 201.404V203.404ZM1026.23 194.294C1033.93 188.183 1037.81 180.323 1037.81 170.784H1035.81C1035.81 179.69 1032.22 186.981 1024.99 192.728L1026.23 194.294ZM1037.81 170.784C1037.81 164.208 1035.87 158.786 1031.94 154.617L1030.48 155.99C1034.01 159.726 1035.81 164.625 1035.81 170.784H1037.81ZM1031.96 154.639C1028.29 150.516 1022.85 147.256 1015.72 144.806L1015.07 146.697C1022 149.078 1027.1 152.186 1030.46 155.968L1031.96 154.639ZM1015.76 144.819C1008.89 142.161 1000.5 139.732 990.584 137.529L990.15 139.482C1000 141.67 1008.29 144.073 1015.04 146.684L1015.76 144.819ZM990.58 137.528L983.004 135.881L982.579 137.836L990.155 139.483L990.58 137.528ZM983.009 135.882C967.249 132.38 953.706 128.009 942.368 122.776L941.53 124.592C953.029 129.899 966.714 134.31 982.575 137.835L983.009 135.882ZM942.389 122.786C931.318 117.358 922.785 110.325 916.748 101.701L915.11 102.848C921.37 111.791 930.184 119.03 941.509 124.582L942.389 122.786ZM916.758 101.715C910.972 93.1429 908.036 81.9373 908.036 68.0195H906.036C906.036 82.2082 909.029 93.8392 915.1 102.834L916.758 101.715ZM908.036 68.0195C908.036 54.1268 911.29 42.3612 917.749 32.6725L916.085 31.5631C909.369 41.6368 906.036 53.8057 906.036 68.0195H908.036ZM917.746 32.6766C924.438 22.7464 933.725 15.1786 945.643 9.97817L944.843 8.14509C932.607 13.4846 923.01 21.2876 916.088 31.5589L917.746 32.6766ZM945.651 9.97477C957.794 4.55375 972.032 1.82728 988.391 1.82728V-0.172722C971.812 -0.172722 957.286 2.59039 944.835 8.14849L945.651 9.97477ZM988.391 1.82728C1004.74 1.82728 1019.2 4.66148 1031.79 10.3035L1032.61 8.47849C1019.72 2.70223 1004.98 -0.172722 988.391 -0.172722V1.82728ZM1031.81 10.3118C1044.59 15.7278 1054.53 23.9454 1061.66 34.9666L1063.34 33.8801C1055.98 22.504 1045.72 14.0333 1032.59 8.47025L1031.81 10.3118ZM1061.67 34.9857C1069 45.7609 1072.7 59.3851 1072.7 75.9245H1074.7C1074.7 59.0873 1070.93 45.0441 1063.33 33.8611L1061.67 34.9857ZM1072.7 75.9245V85.8057H1074.7V75.9245H1072.7ZM1073.7 84.8057H1030.88V86.8057H1073.7V84.8057ZM1031.88 85.8057V75.9245H1029.88V85.8057H1031.88ZM1031.88 75.9245C1031.88 67.0175 1030.1 59.7763 1026.44 54.2899L1024.78 55.3992C1028.15 60.4528 1029.88 67.2648 1029.88 75.9245H1031.88ZM1026.47 54.3301C1023.05 48.635 1018.04 44.5417 1011.47 42.0521L1010.76 43.9221C1016.94 46.2633 1021.58 50.075 1024.75 55.3591L1026.47 54.3301ZM1011.5 42.0631C1004.98 39.3662 997.271 38.0346 988.391 38.0346V40.0346C997.078 40.0346 1004.52 41.338 1010.74 43.9111L1011.5 42.0631ZM988.391 38.0346C975.12 38.0346 965.08 40.5725 958.455 45.8267L959.698 47.3937C965.809 42.5471 975.312 40.0346 988.391 40.0346V38.0346ZM958.459 45.8239C952.044 50.8641 948.854 57.8649 948.854 66.702H950.854C950.854 58.4117 953.813 52.018 959.695 47.3965L958.459 45.8239ZM948.854 66.702C948.854 72.5843 950.328 77.6292 953.325 81.7799L954.947 80.6089C952.235 76.8546 950.854 72.238 950.854 66.702H948.854ZM953.347 81.8084C956.547 85.9236 961.198 89.3068 967.234 91.9894L968.047 90.1618C962.225 87.5745 957.873 84.3702 954.925 80.5805L953.347 81.8084ZM967.234 91.9894C973.247 94.662 980.895 96.9855 990.158 98.9703L990.577 97.0147C981.394 95.047 973.891 92.7592 968.047 90.1618L967.234 91.9894ZM990.155 98.9697L997.73 100.617L998.155 98.6622L990.58 97.0153L990.155 98.9697ZM997.734 100.617C1014.15 104.119 1028.35 108.601 1040.35 114.054L1041.18 112.233C1029.02 106.707 1014.67 102.186 998.151 98.6613L997.734 100.617ZM1040.35 114.057C1052.53 119.491 1061.93 126.641 1068.62 135.485L1070.21 134.279C1063.29 125.118 1053.59 117.776 1041.17 112.231L1040.35 114.057ZM1068.62 135.485C1075.27 144.276 1078.63 155.577 1078.63 169.467H1080.63C1080.63 155.25 1077.18 143.495 1070.21 134.279L1068.62 135.485ZM1078.63 169.467C1078.63 183.338 1075.05 195.547 1067.93 206.127L1069.59 207.244C1076.95 196.306 1080.63 183.701 1080.63 169.467H1078.63ZM1067.93 206.131C1061.02 216.497 1051.07 224.729 1038.03 230.812L1038.88 232.624C1052.19 226.41 1062.45 217.954 1069.59 207.24L1067.93 206.131ZM1038.04 230.809C1025.24 236.665 1010.02 239.611 992.343 239.611V241.611C1010.24 241.611 1025.76 238.629 1038.87 232.627L1038.04 230.809Z" fill="#363636"/>
</svg>
