<svg width="145" height="145" viewBox="0 0 145 145" fill="none" xmlns="http://www.w3.org/2000/svg">
<g filter="url(#filter0_b_3_81)">
<circle cx="72.5" cy="72.5" r="72.5" fill="#00FFA3"/>
</g>
<path d="M73 40.3334C90.4534 40.3334 104.667 54.5398 104.667 72.0184C104.667 89.4602 90.4534 103.667 73 103.667C55.5467 103.667 41.3334 89.4602 41.3334 72.0184C41.3334 54.5398 55.5467 40.3334 73 40.3334ZM69.3932 59.4281C68.7208 59.4281 68.0789 59.5808 67.4675 59.8864C66.7034 60.3141 66.0921 60.9862 65.7558 61.7806C65.5419 62.3305 65.2056 63.9803 65.2056 64.0108C64.8694 65.8134 64.686 68.7463 64.686 71.9848C64.686 75.0735 64.8694 77.8812 65.1445 79.7143C65.1751 79.7449 65.5113 81.7918 65.8781 82.4945C66.5506 83.7777 67.8649 84.572 69.271 84.572H69.3932C70.3102 84.5414 72.2359 83.7471 72.2359 83.7166C75.4759 82.3723 81.8643 78.1867 84.4318 75.4065L84.6152 75.2232C84.9515 74.8872 85.3794 74.3678 85.4711 74.2456C85.9601 73.604 86.2047 72.8097 86.2047 72.0184C86.2047 71.1293 85.9296 70.3044 85.4099 69.6323C85.2877 69.5101 84.8292 68.9907 84.4013 68.563C81.8948 65.8745 75.3536 61.475 71.9302 60.1308C71.4106 59.92 70.0962 59.4586 69.3932 59.4281Z" fill="black"/>
<defs>
<filter id="filter0_b_3_81" x="-20" y="-20" width="185" height="185" filterUnits="userSpaceOnUse" color-interpolation-filters="sRGB">
<feFlood flood-opacity="0" result="BackgroundImageFix"/>
<feGaussianBlur in="BackgroundImageFix" stdDeviation="10"/>
<feComposite in2="SourceAlpha" operator="in" result="effect1_backgroundBlur_3_81"/>
<feBlend mode="normal" in="SourceGraphic" in2="effect1_backgroundBlur_3_81" result="shape"/>
</filter>
</defs>
</svg>
