<svg width="2239" height="241" viewBox="0 0 2239 241" fill="none" xmlns="http://www.w3.org/2000/svg">
<path d="M68.0972 236H67.0972V237H68.0972V236ZM68.0972 44.9633H69.0972V43.9633H68.0972V44.9633ZM0.904965 44.9633H-0.0950351V45.9633H0.904965V44.9633ZM0.904965 5.43851V4.43851H-0.0950351V5.43851H0.904965ZM178.767 5.43851H179.767V4.43851H178.767V5.43851ZM178.767 44.9633V45.9633H179.767V44.9633H178.767ZM111.574 44.9633V43.9633H110.574V44.9633H111.574ZM111.574 236V237H112.574V236H111.574ZM69.0972 236V44.9633H67.0972V236H69.0972ZM68.0972 43.9633H0.904965V45.9633H68.0972V43.9633ZM1.90496 44.9633V5.43851H-0.0950351V44.9633H1.90496ZM0.904965 6.43851H178.767V4.43851H0.904965V6.43851ZM177.767 5.43851V44.9633H179.767V5.43851H177.767ZM178.767 43.9633H111.574V45.9633H178.767V43.9633ZM110.574 44.9633V236H112.574V44.9633H110.574ZM111.574 235H68.0972V237H111.574V235ZM208.374 236H207.374V237H208.374V236ZM208.374 5.43851V4.43851H207.374V5.43851H208.374ZM356.592 5.43851H357.592V4.43851H356.592V5.43851ZM356.592 44.9633V45.9633H357.592V44.9633H356.592ZM251.852 44.9633V43.9633H250.852V44.9633H251.852ZM251.852 99.9687H250.852V100.969H251.852V99.9687ZM347.37 99.9687H348.37V98.9687H347.37V99.9687ZM347.37 139.494V140.494H348.37V139.494H347.37ZM251.852 139.494V138.494H250.852V139.494H251.852ZM251.852 196.475H250.852V197.475H251.852V196.475ZM358.569 196.475H359.569V195.475H358.569V196.475ZM358.569 236V237H359.569V236H358.569ZM209.374 236V5.43851H207.374V236H209.374ZM208.374 6.43851H356.592V4.43851H208.374V6.43851ZM355.592 5.43851V44.9633H357.592V5.43851H355.592ZM356.592 43.9633H251.852V45.9633H356.592V43.9633ZM250.852 44.9633V99.9687H252.852V44.9633H250.852ZM251.852 100.969H347.37V98.9687H251.852V100.969ZM346.37 99.9687V139.494H348.37V99.9687H346.37ZM347.37 138.494H251.852V140.494H347.37V138.494ZM250.852 139.494V196.475H252.852V139.494H250.852ZM251.852 197.475H358.569V195.475H251.852V197.475ZM357.569 196.475V236H359.569V196.475H357.569ZM358.569 235H208.374V237H358.569V235ZM423.689 231.059L423.266 231.965L423.266 231.965L423.689 231.059ZM391.74 203.721L392.579 203.177L392.579 203.177L391.74 203.721ZM380.212 151.68V150.68H379.212V151.68H380.212ZM423.031 151.68H424.031V150.68H423.031V151.68ZM435.876 192.193L435.242 192.966L435.248 192.971L435.254 192.976L435.876 192.193ZM504.057 193.511L503.435 192.728L503.429 192.732L503.423 192.737L504.057 193.511ZM509.656 155.303L508.908 155.968L508.918 155.979L508.929 155.99L509.656 155.303ZM493.846 145.752L493.485 146.684L493.503 146.691L493.521 146.697L493.846 145.752ZM468.814 138.505L469.03 137.529L469.026 137.528L468.814 138.505ZM461.238 136.859L461.021 137.835L461.026 137.836L461.238 136.859ZM420.396 123.684L419.955 124.582L419.966 124.587L419.977 124.592L420.396 123.684ZM394.375 102.274L393.546 102.834L393.551 102.841L393.556 102.848L394.375 102.274ZM395.363 32.1178L394.534 31.5589L394.531 31.5631L395.363 32.1178ZM423.689 9.06163L424.089 9.9782L424.097 9.97477L423.689 9.06163ZM510.644 9.391L510.235 10.3035L510.244 10.3077L510.254 10.3118L510.644 9.391ZM540.946 34.4234L540.107 34.9666L540.113 34.9762L540.119 34.9857L540.946 34.4234ZM552.145 85.8057V86.8057H553.145V85.8057H552.145ZM509.327 85.8057H508.327V86.8057H509.327V85.8057ZM504.057 54.8446L503.199 55.359L503.211 55.3795L503.224 55.3993L504.057 54.8446ZM489.564 42.9871L489.182 43.9111L489.196 43.9168L489.209 43.9221L489.564 42.9871ZM437.523 46.6102L438.141 47.3965L438.144 47.3937L437.523 46.6102ZM432.582 81.1944L431.772 81.7799L431.782 81.7943L431.793 81.8084L432.582 81.1944ZM446.087 91.0756L446.493 90.1618L446.087 91.0756ZM468.814 97.9925L469.026 97.0153L469.023 97.0147L468.814 97.9925ZM476.389 99.6393L476.177 100.617L476.181 100.617L476.389 99.6393ZM519.208 113.144L518.794 114.054L518.8 114.057L519.208 113.144ZM547.863 134.882L548.661 134.279L548.661 134.279L547.863 134.882ZM547.204 206.686L546.375 206.127L546.372 206.131L547.204 206.686ZM516.902 231.718L517.318 232.627L517.325 232.624L516.902 231.718ZM470.79 239.611C453.123 239.611 437.572 236.449 424.113 230.154L423.266 231.965C437.035 238.405 452.884 241.611 470.79 241.611V239.611ZM424.113 230.154C410.657 223.86 400.156 214.868 392.579 203.177L390.901 204.265C398.695 216.29 409.493 225.523 423.266 231.965L424.113 230.154ZM392.579 203.177C385.017 191.509 381.212 177.434 381.212 160.903H379.212C379.212 177.749 383.093 192.218 390.901 204.265L392.579 203.177ZM381.212 160.903V151.68H379.212V160.903H381.212ZM380.212 152.68H423.031V150.68H380.212V152.68ZM422.031 151.68V160.903H424.031V151.68H422.031ZM422.031 160.903C422.031 174.955 426.39 185.704 435.242 192.966L436.511 191.42C428.235 184.63 424.031 174.518 424.031 160.903H422.031ZM435.254 192.976C444.047 199.966 455.929 203.404 470.79 203.404V201.404C456.226 201.404 444.833 198.035 436.498 191.41L435.254 192.976ZM470.79 203.404C485.824 203.404 497.186 200.424 504.69 194.285L503.423 192.737C496.435 198.455 485.619 201.404 470.79 201.404V203.404ZM504.678 194.294C512.374 188.183 516.255 180.323 516.255 170.784H514.255C514.255 179.69 510.671 186.981 503.435 192.728L504.678 194.294ZM516.255 170.784C516.255 164.208 514.321 158.786 510.383 154.617L508.929 155.99C512.457 159.726 514.255 164.625 514.255 170.784H516.255ZM510.403 154.639C506.739 150.516 501.298 147.256 494.171 144.806L493.521 146.697C500.447 149.078 505.546 152.186 508.908 155.968L510.403 154.639ZM494.207 144.819C487.339 142.161 478.943 139.732 469.03 137.529L468.597 139.482C478.446 141.67 486.739 144.073 493.485 146.684L494.207 144.819ZM469.026 137.528L461.45 135.881L461.026 137.836L468.601 139.483L469.026 137.528ZM461.455 135.882C445.696 132.38 432.153 128.009 420.815 122.776L419.977 124.592C431.475 129.899 445.16 134.31 461.021 137.835L461.455 135.882ZM420.836 122.786C409.764 117.358 401.231 110.325 395.194 101.701L393.556 102.848C399.816 111.791 408.63 119.03 419.955 124.582L420.836 122.786ZM395.204 101.715C389.418 93.1429 386.482 81.9373 386.482 68.0195H384.482C384.482 82.2082 387.475 93.8392 393.546 102.834L395.204 101.715ZM386.482 68.0195C386.482 54.1267 389.736 42.3612 396.195 32.6725L394.531 31.5631C387.815 41.6368 384.482 53.8057 384.482 68.0195H386.482ZM396.193 32.6766C402.885 22.7464 412.172 15.1786 424.089 9.97817L423.289 8.14509C411.053 13.4846 401.456 21.2876 394.534 31.5589L396.193 32.6766ZM424.097 9.97477C436.24 4.55375 450.479 1.82728 466.837 1.82728V-0.172719C450.259 -0.172719 435.732 2.59038 423.282 8.14849L424.097 9.97477ZM466.837 1.82728C483.19 1.82728 497.649 4.66148 510.235 10.3035L511.053 8.47849C498.168 2.70223 483.422 -0.172719 466.837 -0.172719V1.82728ZM510.254 10.3118C523.036 15.7278 532.975 23.9454 540.107 34.9666L541.786 33.8801C534.425 22.504 524.163 14.0333 511.034 8.47025L510.254 10.3118ZM540.119 34.9857C547.447 45.7609 551.145 59.3851 551.145 75.9245H553.145C553.145 59.0873 549.378 45.0441 541.773 33.8611L540.119 34.9857ZM551.145 75.9245V85.8057H553.145V75.9245H551.145ZM552.145 84.8057H509.327V86.8057H552.145V84.8057ZM510.327 85.8057V75.9245H508.327V85.8057H510.327ZM510.327 75.9245C510.327 67.0175 508.546 59.7763 504.889 54.2899L503.224 55.3993C506.593 60.4528 508.327 67.2648 508.327 75.9245H510.327ZM504.914 54.3301C501.497 48.635 496.482 44.5417 489.919 42.0521L489.209 43.9221C495.382 46.2633 500.029 50.0749 503.199 55.359L504.914 54.3301ZM489.946 42.0631C483.429 39.3662 475.717 38.0346 466.837 38.0346V40.0346C475.524 40.0346 482.963 41.338 489.182 43.9111L489.946 42.0631ZM466.837 38.0346C453.567 38.0346 443.527 40.5725 436.902 45.8267L438.144 47.3937C444.255 42.5472 453.758 40.0346 466.837 40.0346V38.0346ZM436.905 45.8239C430.49 50.8641 427.301 57.8649 427.301 66.702H429.301C429.301 58.4117 432.259 52.018 438.141 47.3965L436.905 45.8239ZM427.301 66.702C427.301 72.5843 428.774 77.6292 431.772 81.7799L433.393 80.6089C430.682 76.8547 429.301 72.238 429.301 66.702H427.301ZM431.793 81.8084C434.994 85.9236 439.645 89.3068 445.681 91.9894L446.493 90.1618C440.671 87.5745 436.319 84.3702 433.372 80.5805L431.793 81.8084ZM445.681 91.9894C451.694 94.662 459.342 96.9855 468.604 98.9703L469.023 97.0147C459.841 95.047 452.337 92.7592 446.493 90.1618L445.681 91.9894ZM468.601 98.9697L476.177 100.617L476.602 98.6622L469.026 97.0153L468.601 98.9697ZM476.181 100.617C492.596 104.119 506.797 108.601 518.794 114.054L519.622 112.233C507.464 106.707 493.119 102.186 476.598 98.6614L476.181 100.617ZM518.8 114.057C530.972 119.491 540.378 126.641 547.066 135.485L548.661 134.279C541.734 125.118 532.036 117.776 519.615 112.231L518.8 114.057ZM547.066 135.485C553.712 144.276 557.074 155.577 557.074 169.467H559.074C559.074 155.25 555.629 143.495 548.661 134.279L547.066 135.485ZM557.074 169.467C557.074 183.338 553.501 195.547 546.375 206.127L548.034 207.244C555.401 196.306 559.074 183.701 559.074 169.467H557.074ZM546.372 206.131C539.462 216.497 529.513 224.729 516.479 230.812L517.325 232.624C530.641 226.41 540.894 217.954 548.037 207.24L546.372 206.131ZM516.486 230.809C503.689 236.665 488.467 239.611 470.79 239.611V241.611C488.685 241.611 504.204 238.629 517.318 232.627L516.486 230.809ZM636.46 236H635.46V237H636.46V236ZM636.46 44.9633H637.46V43.9633H636.46V44.9633ZM569.267 44.9633H568.267V45.9633H569.267V44.9633ZM569.267 5.43851V4.43851H568.267V5.43851H569.267ZM747.129 5.43851H748.129V4.43851H747.129V5.43851ZM747.129 44.9633V45.9633H748.129V44.9633H747.129ZM679.937 44.9633V43.9633H678.937V44.9633H679.937ZM679.937 236V237H680.937V236H679.937ZM637.46 236V44.9633H635.46V236H637.46ZM636.46 43.9633H569.267V45.9633H636.46V43.9633ZM570.267 44.9633V5.43851H568.267V44.9633H570.267ZM569.267 6.43851H747.129V4.43851H569.267V6.43851ZM746.129 5.43851V44.9633H748.129V5.43851H746.129ZM747.129 43.9633H679.937V45.9633H747.129V43.9633ZM678.937 44.9633V236H680.937V44.9633H678.937ZM679.937 235H636.46V237H679.937V235ZM776.737 236H775.737V237H776.737V236ZM776.737 5.43851V4.43851H775.737V5.43851H776.737ZM820.214 5.43851H821.214V4.43851H820.214V5.43851ZM820.214 236V237H821.214V236H820.214ZM777.737 236V5.43851H775.737V236H777.737ZM776.737 6.43851H820.214V4.43851H776.737V6.43851ZM819.214 5.43851V236H821.214V5.43851H819.214ZM820.214 235H776.737V237H820.214V235ZM863.583 236H862.583V237H863.583V236ZM863.583 5.43851V4.43851H862.583V5.43851H863.583ZM944.28 5.43851L945.261 5.24394L945.101 4.43851H944.28V5.43851ZM984.134 206.356L983.153 206.551L983.313 207.356H984.134V206.356ZM990.063 206.356V207.356H990.884L991.043 206.551L990.063 206.356ZM1029.92 5.43851V4.43851H1029.1L1028.94 5.24394L1029.92 5.43851ZM1110.61 5.43851H1111.61V4.43851H1110.61V5.43851ZM1110.61 236V237H1111.61V236H1110.61ZM1068.45 236H1067.45V237H1068.45V236ZM1068.45 37.3877H1069.45V36.3877H1068.45V37.3877ZM1062.52 37.3877V36.3877H1061.7L1061.54 37.1926L1062.52 37.3877ZM1023 236V237H1023.82L1023.98 236.195L1023 236ZM951.197 236L950.216 236.195L950.376 237H951.197V236ZM911.672 37.3877L912.652 37.1926L912.492 36.3877H911.672V37.3877ZM905.743 37.3877V36.3877H904.743V37.3877H905.743ZM905.743 236V237H906.743V236H905.743ZM864.583 236V5.43851H862.583V236H864.583ZM863.583 6.43851H944.28V4.43851H863.583V6.43851ZM943.299 5.63308L983.153 206.551L985.115 206.162L945.261 5.24394L943.299 5.63308ZM984.134 207.356H990.063V205.356H984.134V207.356ZM991.043 206.551L1030.9 5.63308L1028.94 5.24394L989.082 206.162L991.043 206.551ZM1029.92 6.43851H1110.61V4.43851H1029.92V6.43851ZM1109.61 5.43851V236H1111.61V5.43851H1109.61ZM1110.61 235H1068.45V237H1110.61V235ZM1069.45 236V37.3877H1067.45V236H1069.45ZM1068.45 36.3877H1062.52V38.3877H1068.45V36.3877ZM1061.54 37.1926L1022.02 235.805L1023.98 236.195L1063.51 37.5829L1061.54 37.1926ZM1023 235H951.197V237H1023V235ZM952.177 235.805L912.652 37.1926L910.691 37.5829L950.216 236.195L952.177 235.805ZM911.672 36.3877H905.743V38.3877H911.672V36.3877ZM904.743 37.3877V236H906.743V37.3877H904.743ZM905.743 235H863.583V237H905.743V235ZM1174.46 216.896L1173.77 217.626L1173.78 217.631L1174.46 216.896ZM1174.46 24.8716L1175.14 25.6064L1175.14 25.6017L1174.46 24.8716ZM1312.79 24.8716L1312.11 25.6017L1312.12 25.6064L1312.79 24.8716ZM1312.79 216.896L1313.47 217.631L1313.48 217.626L1312.79 216.896ZM1281.5 187.582L1280.78 186.892L1280.78 186.892L1281.5 187.582ZM1281.5 53.8564L1280.78 54.5465L1280.78 54.5465L1281.5 53.8564ZM1205.75 53.8564L1205.03 53.1576L1205.02 53.1663L1205.75 53.8564ZM1205.75 187.582L1205.02 188.272L1205.03 188.281L1205.75 187.582ZM1243.63 239.611C1214.83 239.611 1192.04 231.762 1175.14 216.162L1173.78 217.631C1191.13 233.651 1214.45 241.611 1243.63 241.611V239.611ZM1175.14 216.166C1158.27 200.373 1149.77 177.831 1149.77 148.387H1147.77C1147.77 178.229 1156.39 201.361 1173.77 217.626L1175.14 216.166ZM1149.77 148.387V93.0519H1147.77V148.387H1149.77ZM1149.77 93.0519C1149.77 63.6067 1158.27 41.1784 1175.14 25.6064L1173.78 24.1367C1156.39 40.1845 1147.77 63.2099 1147.77 93.0519H1149.77ZM1175.14 25.6017C1192.04 9.78415 1214.83 1.82728 1243.63 1.82728V-0.172719C1214.45 -0.172719 1191.13 7.89993 1173.77 24.1414L1175.14 25.6017ZM1243.63 1.82728C1272.42 1.82728 1295.21 9.78415 1312.11 25.6017L1313.48 24.1414C1296.12 7.89993 1272.8 -0.172719 1243.63 -0.172719V1.82728ZM1312.12 25.6064C1328.99 41.1784 1337.49 63.6067 1337.49 93.0519H1339.49C1339.49 63.2099 1330.86 40.1845 1313.47 24.1367L1312.12 25.6064ZM1337.49 93.0519V148.387H1339.49V93.0519H1337.49ZM1337.49 148.387C1337.49 177.831 1328.99 200.373 1312.11 216.166L1313.48 217.626C1330.86 201.361 1339.49 178.229 1339.49 148.387H1337.49ZM1312.12 216.162C1295.22 231.762 1272.42 239.611 1243.63 239.611V241.611C1272.8 241.611 1296.12 233.651 1313.47 217.631L1312.12 216.162ZM1243.63 202.745C1260.08 202.745 1272.99 197.959 1282.23 188.272L1280.78 186.892C1272.01 196.09 1259.67 200.745 1243.63 200.745V202.745ZM1282.23 188.272C1291.44 178.606 1296.01 165.713 1296.01 149.704H1294.01C1294.01 165.315 1289.57 177.674 1280.78 186.892L1282.23 188.272ZM1296.01 149.704V91.7344H1294.01V149.704H1296.01ZM1296.01 91.7344C1296.01 75.7251 1291.44 62.8323 1282.23 53.1663L1280.78 54.5465C1289.57 63.7646 1294.01 76.1238 1294.01 91.7344H1296.01ZM1282.23 53.1663C1272.99 43.48 1260.08 38.6934 1243.63 38.6934V40.6934C1259.67 40.6934 1272.01 45.3488 1280.78 54.5465L1282.23 53.1663ZM1243.63 38.6934C1227.39 38.6934 1214.48 43.4829 1205.03 53.1577L1206.46 54.5552C1215.46 45.3459 1227.8 40.6934 1243.63 40.6934V38.6934ZM1205.02 53.1663C1195.81 62.8323 1191.24 75.7251 1191.24 91.7344H1193.24C1193.24 76.1238 1197.68 63.7646 1206.47 54.5465L1205.02 53.1663ZM1191.24 91.7344V149.704H1193.24V91.7344H1191.24ZM1191.24 149.704C1191.24 165.713 1195.81 178.606 1205.02 188.272L1206.47 186.892C1197.68 177.674 1193.24 165.315 1193.24 149.704H1191.24ZM1205.03 188.281C1214.48 197.956 1227.39 202.745 1243.63 202.745V200.745C1227.8 200.745 1215.46 196.093 1206.46 186.883L1205.03 188.281ZM1376.62 236H1375.62V237H1376.62V236ZM1376.62 5.43851V4.43851H1375.62V5.43851H1376.62ZM1459.29 5.43851L1460.27 5.21634L1460.09 4.43851H1459.29V5.43851ZM1505.08 206.356L1504.1 206.579L1504.28 207.356H1505.08V206.356ZM1511.01 206.356V207.356H1512.01V206.356H1511.01ZM1511.01 5.43851V4.43851H1510.01V5.43851H1511.01ZM1553.82 5.43851H1554.82V4.43851H1553.82V5.43851ZM1553.82 236V237H1554.82V236H1553.82ZM1471.15 236L1470.18 236.222L1470.35 237H1471.15V236ZM1425.37 35.0821L1426.34 34.86L1426.17 34.0821H1425.37V35.0821ZM1419.44 35.0821V34.0821H1418.44V35.0821H1419.44ZM1419.44 236V237H1420.44V236H1419.44ZM1377.62 236V5.43851H1375.62V236H1377.62ZM1376.62 6.43851H1459.29V4.43851H1376.62V6.43851ZM1458.32 5.66068L1504.1 206.579L1506.05 206.134L1460.27 5.21634L1458.32 5.66068ZM1505.08 207.356H1511.01V205.356H1505.08V207.356ZM1512.01 206.356V5.43851H1510.01V206.356H1512.01ZM1511.01 6.43851H1553.82V4.43851H1511.01V6.43851ZM1552.82 5.43851V236H1554.82V5.43851H1552.82ZM1553.82 235H1471.15V237H1553.82V235ZM1472.13 235.778L1426.34 34.86L1424.39 35.3043L1470.18 236.222L1472.13 235.778ZM1425.37 34.0821H1419.44V36.0821H1425.37V34.0821ZM1418.44 35.0821V236H1420.44V35.0821H1418.44ZM1419.44 235H1376.62V237H1419.44V235ZM1597.28 236H1596.28V237H1597.28V236ZM1597.28 5.43851V4.43851H1596.28V5.43851H1597.28ZM1640.75 5.43851H1641.75V4.43851H1640.75V5.43851ZM1640.75 236V237H1641.75V236H1640.75ZM1598.28 236V5.43851H1596.28V236H1598.28ZM1597.28 6.43851H1640.75V4.43851H1597.28V6.43851ZM1639.75 5.43851V236H1641.75V5.43851H1639.75ZM1640.75 235H1597.28V237H1640.75V235ZM1668.31 236L1667.35 235.746L1667.02 237H1668.31V236ZM1728.92 5.43851V4.43851H1728.15L1727.95 5.18429L1728.92 5.43851ZM1804.67 5.43851L1805.64 5.18429L1805.44 4.43851H1804.67V5.43851ZM1865.28 236V237H1866.57L1866.24 235.746L1865.28 236ZM1820.48 236L1819.51 236.24L1819.7 237H1820.48V236ZM1807.97 185.276L1808.94 185.037L1808.75 184.276H1807.97V185.276ZM1725.62 185.276V184.276H1724.84L1724.65 185.037L1725.62 185.276ZM1713.11 236V237H1713.89L1714.08 236.24L1713.11 236ZM1735.83 145.093L1734.86 144.851L1734.55 146.093H1735.83V145.093ZM1797.76 145.093V146.093H1799.04L1798.73 144.851L1797.76 145.093ZM1769.76 32.7765L1770.73 32.5346L1770.54 31.7765H1769.76V32.7765ZM1763.83 32.7765V31.7765H1763.05L1762.86 32.5346L1763.83 32.7765ZM1669.28 236.254L1729.88 5.69273L1727.95 5.18429L1667.35 235.746L1669.28 236.254ZM1728.92 6.43851H1804.67V4.43851H1728.92V6.43851ZM1803.71 5.69273L1864.31 236.254L1866.24 235.746L1805.64 5.18429L1803.71 5.69273ZM1865.28 235H1820.48V237H1865.28V235ZM1821.45 235.76L1808.94 185.037L1807 185.516L1819.51 236.24L1821.45 235.76ZM1807.97 184.276H1725.62V186.276H1807.97V184.276ZM1724.65 185.037L1712.14 235.76L1714.08 236.24L1726.59 185.516L1724.65 185.037ZM1713.11 235H1668.31V237H1713.11V235ZM1735.83 146.093H1797.76V144.093H1735.83V146.093ZM1798.73 144.851L1770.73 32.5346L1768.79 33.0184L1796.79 145.335L1798.73 144.851ZM1769.76 31.7765H1763.83V33.7765H1769.76V31.7765ZM1762.86 32.5346L1734.86 144.851L1736.8 145.335L1764.8 33.0184L1762.86 32.5346ZM1892.88 236H1891.88V237H1892.88V236ZM1892.88 5.43851V4.43851H1891.88V5.43851H1892.88ZM1936.35 5.43851H1937.35V4.43851H1936.35V5.43851ZM1936.35 196.475H1935.35V197.475H1936.35V196.475ZM2041.75 196.475H2042.75V195.475H2041.75V196.475ZM2041.75 236V237H2042.75V236H2041.75ZM1893.88 236V5.43851H1891.88V236H1893.88ZM1892.88 6.43851H1936.35V4.43851H1892.88V6.43851ZM1935.35 5.43851V196.475H1937.35V5.43851H1935.35ZM1936.35 197.475H2041.75V195.475H1936.35V197.475ZM2040.75 196.475V236H2042.75V196.475H2040.75ZM2041.75 235H1892.88V237H2041.75V235ZM2104.33 231.059L2103.91 231.965L2103.91 231.965L2104.33 231.059ZM2072.38 203.721L2073.22 203.177L2073.22 203.177L2072.38 203.721ZM2060.85 151.68V150.68H2059.85V151.68H2060.85ZM2103.67 151.68H2104.67V150.68H2103.67V151.68ZM2116.52 192.193L2115.88 192.966L2115.89 192.971L2115.9 192.976L2116.52 192.193ZM2184.7 193.511L2184.08 192.728L2184.07 192.732L2184.06 192.737L2184.7 193.511ZM2190.3 155.303L2189.55 155.968L2189.56 155.979L2189.57 155.99L2190.3 155.303ZM2174.49 145.752L2174.13 146.684L2174.14 146.691L2174.16 146.697L2174.49 145.752ZM2149.45 138.505L2149.67 137.529L2149.67 137.528L2149.45 138.505ZM2141.88 136.859L2141.66 137.835L2141.67 137.836L2141.88 136.859ZM2101.04 123.684L2100.6 124.582L2100.61 124.587L2100.62 124.592L2101.04 123.684ZM2075.02 102.274L2074.19 102.834L2074.19 102.841L2074.2 102.848L2075.02 102.274ZM2076 32.1178L2075.18 31.5589L2075.17 31.5631L2076 32.1178ZM2104.33 9.06163L2104.73 9.9782L2104.74 9.97477L2104.33 9.06163ZM2191.29 9.391L2190.88 10.3035L2190.89 10.3077L2190.9 10.3118L2191.29 9.391ZM2221.59 34.4234L2220.75 34.9666L2220.75 34.9762L2220.76 34.9857L2221.59 34.4234ZM2232.79 85.8057V86.8057H2233.79V85.8057H2232.79ZM2189.97 85.8057H2188.97V86.8057H2189.97V85.8057ZM2184.7 54.8446L2183.84 55.359L2183.85 55.3795L2183.87 55.3993L2184.7 54.8446ZM2170.21 42.9871L2169.82 43.9111L2169.84 43.9168L2169.85 43.9221L2170.21 42.9871ZM2118.16 46.6102L2118.78 47.3965L2118.79 47.3937L2118.16 46.6102ZM2113.22 81.1944L2112.41 81.7799L2112.42 81.7943L2112.43 81.8084L2113.22 81.1944ZM2126.73 91.0756L2127.13 90.1618L2126.73 91.0756ZM2149.45 97.9925L2149.67 97.0153L2149.66 97.0147L2149.45 97.9925ZM2157.03 99.6393L2156.82 100.617L2156.82 100.617L2157.03 99.6393ZM2199.85 113.144L2199.44 114.054L2199.44 114.057L2199.85 113.144ZM2228.5 134.882L2229.3 134.279L2229.3 134.279L2228.5 134.882ZM2227.85 206.686L2227.02 206.127L2227.01 206.131L2227.85 206.686ZM2197.54 231.718L2197.96 232.627L2197.97 232.624L2197.54 231.718ZM2151.43 239.611C2133.76 239.611 2118.21 236.449 2104.75 230.154L2103.91 231.965C2117.68 238.405 2133.53 241.611 2151.43 241.611V239.611ZM2104.75 230.154C2091.3 223.86 2080.8 214.868 2073.22 203.177L2071.54 204.265C2079.34 216.29 2090.13 225.523 2103.91 231.965L2104.75 230.154ZM2073.22 203.177C2065.66 191.509 2061.85 177.434 2061.85 160.903H2059.85C2059.85 177.749 2063.73 192.218 2071.54 204.265L2073.22 203.177ZM2061.85 160.903V151.68H2059.85V160.903H2061.85ZM2060.85 152.68H2103.67V150.68H2060.85V152.68ZM2102.67 151.68V160.903H2104.67V151.68H2102.67ZM2102.67 160.903C2102.67 174.955 2107.03 185.704 2115.88 192.966L2117.15 191.42C2108.88 184.63 2104.67 174.518 2104.67 160.903H2102.67ZM2115.9 192.976C2124.69 199.966 2136.57 203.404 2151.43 203.404V201.404C2136.87 201.404 2125.47 198.035 2117.14 191.41L2115.9 192.976ZM2151.43 203.404C2166.46 203.404 2177.83 200.424 2185.33 194.285L2184.06 192.737C2177.08 198.455 2166.26 201.404 2151.43 201.404V203.404ZM2185.32 194.294C2193.02 188.183 2196.9 180.323 2196.9 170.784H2194.9C2194.9 179.69 2191.31 186.981 2184.08 192.728L2185.32 194.294ZM2196.9 170.784C2196.9 164.208 2194.96 158.786 2191.02 154.617L2189.57 155.99C2193.1 159.726 2194.9 164.625 2194.9 170.784H2196.9ZM2191.04 154.639C2187.38 150.516 2181.94 147.256 2174.81 144.806L2174.16 146.697C2181.09 149.078 2186.19 152.186 2189.55 155.968L2191.04 154.639ZM2174.85 144.819C2167.98 142.161 2159.58 139.732 2149.67 137.529L2149.24 139.482C2159.09 141.67 2167.38 144.073 2174.13 146.684L2174.85 144.819ZM2149.67 137.528L2142.09 135.881L2141.67 137.836L2149.24 139.483L2149.67 137.528ZM2142.1 135.882C2126.34 132.38 2112.79 128.009 2101.46 122.776L2100.62 124.592C2112.12 129.899 2125.8 134.31 2141.66 137.835L2142.1 135.882ZM2101.48 122.786C2090.41 117.358 2081.87 110.325 2075.84 101.701L2074.2 102.848C2080.46 111.791 2089.27 119.03 2100.6 124.582L2101.48 122.786ZM2075.85 101.715C2070.06 93.1429 2067.12 81.9373 2067.12 68.0195H2065.12C2065.12 82.2082 2068.12 93.8392 2074.19 102.834L2075.85 101.715ZM2067.12 68.0195C2067.12 54.1267 2070.38 42.3612 2076.84 32.6725L2075.17 31.5631C2068.46 41.6368 2065.12 53.8057 2065.12 68.0195H2067.12ZM2076.83 32.6766C2083.53 22.7464 2092.81 15.1786 2104.73 9.97817L2103.93 8.14509C2091.69 13.4846 2082.1 21.2876 2075.18 31.5589L2076.83 32.6766ZM2104.74 9.97477C2116.88 4.55375 2131.12 1.82728 2147.48 1.82728V-0.172719C2130.9 -0.172719 2116.37 2.59038 2103.92 8.14849L2104.74 9.97477ZM2147.48 1.82728C2163.83 1.82728 2178.29 4.66148 2190.88 10.3035L2191.69 8.47849C2178.81 2.70223 2164.06 -0.172719 2147.48 -0.172719V1.82728ZM2190.9 10.3118C2203.68 15.7278 2213.62 23.9454 2220.75 34.9666L2222.43 33.8801C2215.07 22.504 2204.8 14.0333 2191.68 8.47025L2190.9 10.3118ZM2220.76 34.9857C2228.09 45.7609 2231.79 59.3851 2231.79 75.9245H2233.79C2233.79 59.0873 2230.02 45.0441 2222.41 33.8611L2220.76 34.9857ZM2231.79 75.9245V85.8057H2233.79V75.9245H2231.79ZM2232.79 84.8057H2189.97V86.8057H2232.79V84.8057ZM2190.97 85.8057V75.9245H2188.97V85.8057H2190.97ZM2190.97 75.9245C2190.97 67.0175 2189.19 59.7763 2185.53 54.2899L2183.87 55.3993C2187.23 60.4528 2188.97 67.2648 2188.97 75.9245H2190.97ZM2185.56 54.3301C2182.14 48.635 2177.12 44.5417 2170.56 42.0521L2169.85 43.9221C2176.02 46.2633 2180.67 50.0749 2183.84 55.359L2185.56 54.3301ZM2170.59 42.0631C2164.07 39.3662 2156.36 38.0346 2147.48 38.0346V40.0346C2156.17 40.0346 2163.6 41.338 2169.82 43.9111L2170.59 42.0631ZM2147.48 38.0346C2134.21 38.0346 2124.17 40.5725 2117.54 45.8267L2118.79 47.3937C2124.9 42.5472 2134.4 40.0346 2147.48 40.0346V38.0346ZM2117.55 45.8239C2111.13 50.8641 2107.94 57.8649 2107.94 66.702H2109.94C2109.94 58.4117 2112.9 52.018 2118.78 47.3965L2117.55 45.8239ZM2107.94 66.702C2107.94 72.5843 2109.42 77.6292 2112.41 81.7799L2114.03 80.6089C2111.32 76.8547 2109.94 72.238 2109.94 66.702H2107.94ZM2112.43 81.8084C2115.64 85.9236 2120.29 89.3068 2126.32 91.9894L2127.13 90.1618C2121.31 87.5745 2116.96 84.3702 2114.01 80.5805L2112.43 81.8084ZM2126.32 91.9894C2132.34 94.662 2139.98 96.9855 2149.25 98.9703L2149.66 97.0147C2140.48 95.047 2132.98 92.7592 2127.13 90.1618L2126.32 91.9894ZM2149.24 98.9697L2156.82 100.617L2157.24 98.6622L2149.67 97.0153L2149.24 98.9697ZM2156.82 100.617C2173.24 104.119 2187.44 108.601 2199.44 114.054L2200.26 112.233C2188.11 106.707 2173.76 102.186 2157.24 98.6614L2156.82 100.617ZM2199.44 114.057C2211.61 119.491 2221.02 126.641 2227.71 135.485L2229.3 134.279C2222.38 125.118 2212.68 117.776 2200.26 112.231L2199.44 114.057ZM2227.71 135.485C2234.35 144.276 2237.72 155.577 2237.72 169.467H2239.72C2239.72 155.25 2236.27 143.495 2229.3 134.279L2227.71 135.485ZM2237.72 169.467C2237.72 183.338 2234.14 195.547 2227.02 206.127L2228.68 207.244C2236.04 196.306 2239.72 183.701 2239.72 169.467H2237.72ZM2227.01 206.131C2220.1 216.497 2210.15 224.729 2197.12 230.812L2197.97 232.624C2211.28 226.41 2221.54 217.954 2228.68 207.24L2227.01 206.131ZM2197.13 230.809C2184.33 236.665 2169.11 239.611 2151.43 239.611V241.611C2169.33 241.611 2184.85 238.629 2197.96 232.627L2197.13 230.809Z" fill="#363636"/>
</svg>
